<svg xmlns="http://www.w3.org/2000/svg" xmlns:xlink="http://www.w3.org/1999/xlink" viewBox="0 0 653.39 181.72"><defs><style>.cls-1,.cls-4{fill:none;}.cls-2{fill:#00a99d;}.cls-3{font-size:136.74px;fill:#333;font-family:Comfortaa;letter-spacing:0.07em;}.cls-4{stroke:#00a99d;stroke-linecap:round;stroke-miterlimit:10;stroke-width:15px;}.cls-5{clip-path:url(#clip-path);}.cls-6{fill:#317c7c;}</style><clipPath id="clip-path" transform="translate(0 -11)"><polygon class="cls-1" points="18.25 10.94 62.7 134.01 172.77 151.1 126.96 47.17 29.88 4.1 11.42 0 18.25 10.94"/></clipPath></defs><title>Logo</title><g id="レイヤー_2" data-name="レイヤー 2"><g id="レイヤー_1-2" data-name="レイヤー 1"><polygon class="cls-2" points="60.95 117.88 133.42 117.77 20.22 5.13 5.13 164.1 60.95 117.88"/><path class="cls-2" d="M5.13,180.23A5.14,5.14,0,0,1,0,174.62l15.1-159a5.13,5.13,0,0,1,8.72-3.15L137,125.13a5.12,5.12,0,0,1-3.61,8.76L62.8,134l-54.4,45A5.11,5.11,0,0,1,5.13,180.23ZM24.3,27.42,11.4,163.25l46.28-38.32a5.16,5.16,0,0,1,3.26-1.18l60.07-.09Z" transform="translate(0 -11)"/><text class="cls-3" transform="translate(151.68 149.67)">ssort</text><line class="cls-4" x1="563.17" y1="144.2" x2="645.89" y2="144.2"/><g class="cls-5"><polygon class="cls-6" points="60.95 117.88 133.42 117.77 20.22 5.13 5.13 164.1 60.95 117.88"/><path class="cls-6" d="M5.13,180.23A5.14,5.14,0,0,1,0,174.62l15.1-159a5.13,5.13,0,0,1,8.72-3.15L137,125.13a5.12,5.12,0,0,1-3.61,8.76L62.8,134l-54.4,45A5.11,5.11,0,0,1,5.13,180.23ZM24.3,27.42,11.4,163.25l46.28-38.32a5.16,5.16,0,0,1,3.26-1.18l60.07-.09Z" transform="translate(0 -11)"/></g></g></g></svg>